<svg xmlns="http://www.w3.org/2000/svg" xml:space="preserve" viewBox="0 0 3000 3000" fill-rule="evenodd" clip-rule="evenodd" stroke-linecap="round" stroke-linejoin="round" stroke-miterlimit="1.5" id="Securelogin">
  <path d="M0 0h3000v3000H0z" fill="none"></path>
  <path d="M123.615 2016.12h2752.77v70.662H123.615z" fill="#ffd645" class="color458cff svgShape"></path>
  <path d="m1714.46 1043.91-584.917-367.128a8.206 8.206 0 0 0-8.033-.389L814.421 829.937 513.385 648.701a8.208 8.208 0 0 0-8.466 14.062l304.903 183.564a8.205 8.205 0 0 0 7.903.31l307-153.5 581.009 364.676a8.208 8.208 0 0 0 8.726-13.903Z" fill="#584811" class="color112e58 svgShape"></path>
  <ellipse cx="1130.7" cy="689.405" rx="54.543" ry="55.053" fill="#ffc600" class="colorffb100 svgShape"></ellipse>
  <ellipse cx="816.699" cy="821.94" rx="54.543" ry="55.053" fill="#ffc600" class="colorffb100 svgShape"></ellipse>
  <ellipse cx="513.909" cy="647.527" rx="54.543" ry="55.053" fill="#ffc600" class="colorffb100 svgShape"></ellipse>
  <path d="m2613.68 938.886-116.505-214.773-232.594 914.378c48.269-58.679 91.159-90.668 159.412-97.962l189.687-601.643ZM2070.6 1979.51l-230.643-397.255 55.366-31.688 317.823 469.67-379.171 64.548 5.982-40.659 230.643-64.616Z" fill="#584811" class="color112e58 svgShape"></path>
  <path d="m1598.84 1566.46 243.349-15.895 300.688 450.695-266.09-40.12-277.947-394.68Z" fill="#ffd645" class="color458cff svgShape"></path>
  <path d="m1473.01 702.947 1140.67-98.267-347.06 1033.81-1068.32-10.72L1473 702.946Z" fill="#b18a02" class="color0246b1 svgShape"></path>
  <path d="m1554.97 766.176 869.024-42.063-208.893 792.603-890.337.989 230.206-751.529Z" fill="#ffd645" class="color458cff svgShape"></path>
  <path d="m1598.84 1925.35 272.018-10.456 272.019 86.369-302.921 42.864-241.116-118.777Z" fill="#ebb701" class="color015ceb svgShape"></path>
  <path d="M1598.84 1925.35v54.161l235.134 105.275 5.982-40.659-241.116-118.777Z" fill="#584811" class="color112e58 svgShape"></path>
  <path d="m1415.41 1450.18 896.363-201.883-10.767-847.911-890.979 231.493 5.383 818.301Z" fill="#fff4cd" class="colorcde4ff svgShape"></path>
  <path d="M1891 402.267c110.075 15.555 185.954 123.632 169.34 241.197-16.614 117.565-119.469 200.384-229.544 184.828-110.075-15.555-185.954-123.632-169.34-241.197C1678.07 469.53 1780.925 386.712 1891 402.267Zm-12.065 85.381c65.954 9.32 111.419 74.077 101.464 144.519-9.955 70.442-71.583 120.065-137.537 110.745-65.955-9.321-111.42-74.078-101.465-144.52 9.955-70.442 71.583-120.065 137.538-110.744Z" fill="#b18a02" class="color0246b1 svgShape"></path>
  <path d="M1572.82 1223.34a34.862 34.862 0 0 0 43.182 33.642l536.185-131.804-6.397-549.857a36.743 36.743 0 0 0-14.758-29.015 36.745 36.745 0 0 0-32.012-5.91l-529.411 150.128 3.211 532.816Z" fill="#dbc166" stroke="#ffc600" stroke-width=".72px" class="colorfcd44f svgShape colorStrokeff7b00 svgStroke"></path>
  <path d="M2065.6 549.869v596.589l86.585-21.284-6.397-549.857a36.743 36.743 0 0 0-14.758-29.015 36.745 36.745 0 0 0-32.012-5.91l-33.418 9.477ZM1787.71 854.585c-19.244-9.437-32.263-27.46-32.263-48.122 0-30.426 28.231-55.128 63.003-55.128s63.003 24.702 63.003 55.128c0 16.123-7.927 30.638-20.555 40.723v230.316h-73.188V854.585Z" fill="#584811" stroke="#ffc600" stroke-width=".72px" class="color112e58 svgShape colorStrokeff7b00 svgStroke"></path>
  <path d="m999.799 1638.63 3.997-181.347-168.509-6.937c-131.288-5.405-130.922 146.831-19.69 165.824 82.289 14.05 184.202 22.46 184.202 22.46Z" fill="#584811" class="color112e58 svgShape"></path>
  <path d="M926.579 1530.37c-40.563 98.862 95.901 163.42 162.579 43.966 27.201-48.731 38.423-133.619 45.277-206.699.371-3.954 29.483-23.444 33.601-28.7 32.456-41.416-10.178-27.912-10.178-27.912 16.048-23.836 8.783-32.094-19.959-26.001 29.516-20.547 3.733-38.007-21.865-21.027 13.283-8.132 5.133-30.602-16.852-12.839-109.703 88.635-143.684 208.728-172.603 279.212Z" fill="#ffeca8" class="colorffc5a8 svgShape"></path>
  <path d="m1022.27 1243.81-13.72 29.572a2 2 0 1 0 3.628 1.683l13.72-29.572a2 2 0 1 0-3.628-1.683ZM1050.7 1254.23l-15.188 28.126a2 2 0 1 0 3.519 1.9l15.189-28.126a2 2 0 0 0-3.52-1.9ZM1079.09 1269.66l-13.501 21.189a1.999 1.999 0 1 0 3.373 2.149l13.501-21.188a2 2 0 1 0-3.373-2.15Z" fill="#000000" class="color000000 svgShape"></path>
  <path d="m1255.17 2035.39-94.927 97.385 144.685 173.515c63.982-9.302 176.96-95.122 217.65-159.971-24.897-77.188-80.1-52.429-175.759-15.953l-91.649-94.976Z" fill="#584811" class="color112e58 svgShape"></path>
  <path d="M1313.7 2055.55c6.407-69.403-381.825-289.989-497.466-230.891-43.695 22.329-21.604 217.946 14.243 184.436 26.964-25.205 311.265 99.491 325.764 167.151-11.185-5.747 48.556-74.419 60.728-86.575 37.288-37.238 96.731-34.121 96.731-34.121Z" fill="#b18a02" class="color0246b1 svgShape"></path>
  <path d="M773.569 1240.63s-58.377-162.97-142.903-66.283c15.784 15.067-194.371-7.492-78.426 97.372 11.586 10.862-160.076 99.027 14.594 90.864 6.773-24.551-78.002 187.808 86.959 44.682l-2.085 33.458 116.677-155.648 5.184-44.445Z" fill="#000000" class="color000000 svgShape"></path>
  <path d="m767.746 1315.99-74.561-1.72-7.187 115.776 131.072 6.059-49.324-120.115Z" fill="#ffeca8" class="colorffc5a8 svgShape"></path>
  <path d="m767.746 1315.99-74.561-1.72c18.748 24.641 48.083 36.128 88.006 34.461l-13.445-32.741Z" fill="#000000" class="color000000 svgShape"></path>
  <path d="M675.876 1186.93s121.206 22.03 107.694 136.516c-4.214 35.71-87.997-1.213-89.567-8.279-30.137 23.736-38.736-8.649-40.716-17.079-2.107-8.974-4.5-50.575 29.321-35.624l-6.732-75.534Z" fill="#ffeca8" class="colorffc5a8 svgShape"></path>
  <path d="M719.236 1220.53c6.121 4.491 9.52 11.596 7.584 15.856-1.936 4.259-8.477 4.071-14.599-.421-6.121-4.491-9.52-11.596-7.584-15.856 1.936-4.259 8.477-4.071 14.599.421ZM770.286 1276.86l-22.444 2.066c-1.445.134-2.532 1.73-2.428 3.567.105 1.836 1.362 3.217 2.807 3.084l22.445-2.066c1.445-.133 2.532-1.73 2.427-3.567-.105-1.836-1.361-3.217-2.807-3.084Z" fill="#000000" class="color000000 svgShape"></path>
  <path d="m1184.87 1079.37 485.919-280.477 108.541 180.089-83.395 44.359s-60.329-101.139-65.652-85.17l-18.454 55.361-90.437 13.84-40.156 62.103-97.59 10.646-31.939 60.328-94.042 15.079-15.489 15.506a136.113 136.113 0 0 1 1.75 21.796c0 79.383-68.62 143.832-153.141 143.832-84.521 0-153.141-64.449-153.141-143.832s68.62-143.832 153.141-143.832c35.457 0 68.115 11.342 94.085 30.372Zm-149.774 44.235-1.549 1.487a79.552 79.552 0 0 0-2.333 112.481l.002.002a79.553 79.553 0 0 0 112.481 2.334l1.549-1.487-110.15-114.817Z" fill="#ffc600" class="colorffb100 svgShape"></path>
  <path d="M1095.68 2285.37H909.53v188.148c70.247 46.461 159.444 89.312 280.495 126.095 51.87-84.719 33.177-156.09-93.971-206.941l-.374-107.302Z" fill="#584811" class="color112e58 svgShape"></path>
  <path d="M840.497 2118.36c185.028 74.57 404.751-82.122 166.044-197.539-117.745-56.931-344.116-155.857-430.967-128.824-46.853 14.583-46.231 181.768-13.006 217.878 84.073 91.373 209.818 81.035 277.929 108.485Z" fill="#b18a02" class="color0246b1 svgShape"></path>
  <path d="M1108.3 2057.92c16.311-41.806-7.358-93.676-100.887-138.898-82.53-39.904-218.362-100.4-322.261-123.83-44.888-10.122-83.869-13.289-110.171-5.103a2 2 0 0 0 1.189 3.82c25.81-8.034 64.053-4.748 108.102 5.185 103.624 23.368 239.088 83.73 321.4 123.529 45.622 22.059 74.384 45.586 89.709 68.75 15.048 22.744 17.004 45.07 9.192 65.093a2 2 0 0 0 3.727 1.454Z" fill="#000000" class="color000000 svgShape"></path>
  <path d="M1113.99 2301.57s-7.147-103.253-2.996-202.554c10.128-242.297-214.533-166.367-236.51 26.153-13.238 115.959-17.754 191.072-17.754 191.072l257.26-14.671Z" fill="#b18a02" class="color0246b1 svgShape"></path>
  <path d="M1115.99 2301.43s-7.14-103.14-2.994-202.333c.822-19.669.105-37.255-1.917-52.864a2 2 0 1 0-3.967.514c1.996 15.407 2.699 32.767 1.888 52.183-4.156 99.41 2.999 202.776 2.999 202.776a2.001 2.001 0 0 0 3.991-.276Z" fill="#000000" class="color000000 svgShape"></path>
  <path d="M890.035 1848.13s-4.213-366.28-42.491-414.218c-30.618-38.345-180.858-30.157-198.571 15.604-71.152 183.82-123.054 406.935-123.054 406.935 181.567 44.967 307.578 45.873 364.116-8.321Z" fill="#ffd645" class="color458cff svgShape"></path>
  <path d="m924.411 1613.2 3.996-181.347-168.508-6.937c-131.289-5.405-130.922 146.831-19.69 165.823 82.288 14.051 184.202 22.461 184.202 22.461Z" fill="#584811" class="color112e58 svgShape"></path>
  <path d="M773.569 1240.63s-58.377-162.97-142.903-66.283l53.708 90.192c-1.568-31.644 19.683-35.519 12.857-59.279 25.446-3.329 50.892 12.699 76.338 35.37Z" fill="#000000" class="color000000 svgShape"></path>
  <path d="M879.786 1538.75c1.759 106.846 152.625 112.29 166.732-23.785 5.754-55.511-17.446-137.935-39.998-207.785-1.22-3.78 17.833-33.179 19.542-39.633 13.471-50.866-20.37-21.628-20.37-21.628 5.336-28.235-4.6-32.955-28.602-16.01 19.008-30.53-11.574-36.394-28.39-10.688 8.994-12.715-7.364-30.142-20.552-5.143-65.803 124.743-49.616 248.497-48.362 324.672Z" fill="#ffeca8" class="colorffc5a8 svgShape"></path>
  <path d="M947.476 1217.45c-.152.223-.301.447-.449.673a2.001 2.001 0 0 0 3.306 2.25c.177-.249.344-.5.504-.753 5.626-8.277 12.725-12.978 18.83-14.254 3.714-.777 7.018-.287 9.129 1.657 1.717 1.581 2.54 4.088 2.262 7.413-.322 3.845-2.081 8.655-5.666 14.413a2 2 0 0 0 2.851 2.691c6.934-4.895 12.629-7.95 17.094-9.042 2.505-.613 4.547-.608 6.108.232 1.941 1.044 2.974 3.314 3.422 6.656.535 3.991.143 9.367-1.14 16.159a1.999 1.999 0 0 0 3.273 1.885s4.19-3.622 8.953-5.989c2.788-1.385 5.762-2.472 8.056-1.612 1.746.656 2.778 2.566 3.117 6.123.427 4.491-.389 11.232-2.997 21.08-1.356 5.121-13.763 24.787-18.036 34.377-.845 1.898-1.387 3.454-1.556 4.503-.128.796-.065 1.429.08 1.879 22.464 69.579 45.644 151.67 39.911 206.965-8.253 79.612-64.017 110.076-108.196 99.195a2 2 0 1 0-.957 3.884c45.981 11.325 104.542-19.808 113.132-102.667 5.773-55.687-17.412-138.369-40.035-208.456.03-.165.15-.79.315-1.281.536-1.594 1.569-3.799 2.874-6.351 5.355-10.473 15.124-26.451 16.335-31.024 3.363-12.698 3.794-20.607 2.655-25.279-.936-3.836-2.901-5.816-5.237-6.692-2.452-.921-5.488-.549-8.525.586-3.037 1.134-6.085 3.001-8.412 4.616.871-6.403.798-11.391-.138-14.987-.911-3.503-2.637-5.823-4.999-7.093-2.292-1.233-5.277-1.494-8.954-.595-3.315.811-7.28 2.59-11.871 5.345 2.026-4.663 2.763-8.614 2.563-11.8-.22-3.521-1.546-6.211-3.572-8.077-2.942-2.708-7.483-3.711-12.658-2.63-4.939 1.033-10.511 3.985-15.609 9.024-.407-5.683-4.236-10.397-9.32-11.035-4.962-.622-11.676 2.588-17.54 13.703a2 2 0 0 0 3.538 1.866c2.46-4.662 5.007-7.766 7.491-9.614 2.155-1.606 4.206-2.213 6.013-1.986 2.044.257 3.7 1.586 4.719 3.417 1.596 2.869 1.65 6.932-.664 10.625Z" fill="#000000" class="color000000 svgShape"></path>
  <path d="m946.886 1218.38-13.72 29.571a2 2 0 0 0 3.629 1.684l13.72-29.572a2 2 0 0 0-3.629-1.683ZM975.312 1228.79l-15.188 28.126a2.001 2.001 0 0 0 3.52 1.901l15.188-28.126a2 2 0 0 0-3.52-1.901ZM1003.7 1244.23l-13.5 21.188a2 2 0 1 0 3.373 2.15l13.5-21.188a2 2 0 1 0-3.373-2.15Z" fill="#000000" class="color000000 svgShape"></path>
  <path d="M2741.21 1638.11s12.691 84.084-18.438 130.098c-31.129 46.013-80.343 57.728-94.414 53.882-6.732-1.84-24.231-58.271 6.898-104.285 31.129-46.014 105.954-79.695 105.954-79.695ZM2427.86 1635.17s-12.69 84.084 18.439 130.098c31.129 46.013 80.343 57.728 94.413 53.882 6.733-1.84 24.232-58.271-6.897-104.285-31.129-46.014-105.955-79.695-105.955-79.695ZM2574.37 1472.79s57.363 78.467 57.131 148.006c-.233 69.538-34.587 116.086-48.416 121.922-6.617 2.792-52.576-43.594-52.343-113.133.232-69.538 43.628-156.795 43.628-156.795Z" fill="#ffd645" class="color458cff svgShape"></path>
  <path d="m2693.34 1712.68-79.682 155.89-14.805-1.213 94.487-154.677ZM2475.72 1709.75l79.682 155.89 14.805-1.213-94.487-154.677ZM2580.56 1612.21l8.697 267.358-13.457 10.562 4.76-277.92Z" fill="#ebb701" class="color015ceb svgShape"></path>
  <path d="M2693.15 1851.91h-218.643s5.039 97.041 30.06 126.762c43.434 51.593 143.26 47.191 171.568-9.642 17.322-34.776 17.015-117.12 17.015-117.12Z" fill="#b18a02" class="color0246b1 svgShape"></path>
</svg>
